HIERARCHY
ROOT mixamorig:Hips
{
	OFFSET 0.000000 35.069874 -0.029489
	CHANNELS 6 Xposition Yposition Zposition Xrotation Yrotation Zrotation
	JOINT mixamorig:Spine
	{
		OFFSET 0.000000 6.876060 0.125662
		CHANNELS 3 Xrotation Yrotation Zrotation
		JOINT mixamorig:Spine1
		{
			OFFSET 0.000000 8.022060 0.146603
			CHANNELS 3 Xrotation Yrotation Zrotation
			JOINT mixamorig:Spine2
			{
				OFFSET 0.000000 9.168079 0.167547
				CHANNELS 3 Xrotation Yrotation Zrotation
				JOINT mixamorig:Neck
				{
					OFFSET 0.000000 10.314075 0.188489
					CHANNELS 3 Xrotation Yrotation Zrotation
					JOINT mixamorig:Head
					{
						OFFSET 0.000000 7.643753 -2.377445
						CHANNELS 3 Xrotation Yrotation Zrotation
						JOINT mixamorig:HeadTop_End
						{
							OFFSET 0.000000 43.788605 -13.619637
							CHANNELS 3 Xrotation Yrotation Zrotation
							End Site
							{
								OFFSET 0.000000 45.857788 0.000000
							}
						}
					}
				}
				JOINT mixamorig:LeftShoulder
				{
					OFFSET 4.392187 8.825001 0.174995
					CHANNELS 3 Xrotation Yrotation Zrotation
					JOINT mixamorig:LeftArm
					{
						OFFSET 8.774866 -2.970879 -0.026997
						CHANNELS 3 Xrotation Yrotation Zrotation
						JOINT mixamorig:LeftForeArm
						{
							OFFSET 8.450586 -0.797432 -0.648343
							CHANNELS 3 Xrotation Yrotation Zrotation
							JOINT mixamorig:LeftHand
							{
								OFFSET 18.458662 0.962311 0.193148
								CHANNELS 3 Xrotation Yrotation Zrotation
								JOINT mixamorig:LeftHandThumb1
								{
									OFFSET 2.379990 -1.333382 2.680594
									CHANNELS 3 Xrotation Yrotation Zrotation
									JOINT mixamorig:LeftHandThumb2
									{
										OFFSET 1.903984 -1.066746 2.144473
										CHANNELS 3 Xrotation Yrotation Zrotation
										JOINT mixamorig:LeftHandThumb3
										{
											OFFSET 0.966393 -1.489639 2.964555
											CHANNELS 3 Xrotation Yrotation Zrotation
											JOINT mixamorig:LeftHandThumb4
											{
												OFFSET 1.205181 -0.823021 1.625701
												CHANNELS 3 Xrotation Yrotation Zrotation
												End Site
												{
													OFFSET 1.050617 -0.818157 1.731923
												}
											}
										}
									}
								}
								JOINT mixamorig:LeftHandIndex1
								{
									OFFSET 7.830624 -0.787468 2.563931
									CHANNELS 3 Xrotation Yrotation Zrotation
									JOINT mixamorig:LeftHandIndex2
									{
										OFFSET 3.312897 -0.052605 1.515312
										CHANNELS 3 Xrotation Yrotation Zrotation
										JOINT mixamorig:LeftHandIndex3
										{
											OFFSET 3.460667 -0.207008 1.581951
											CHANNELS 3 Xrotation Yrotation Zrotation
											JOINT mixamorig:LeftHandIndex4
											{
												OFFSET 2.183182 0.110458 0.999585
												CHANNELS 3 Xrotation Yrotation Zrotation
												End Site
												{
													OFFSET 2.183868 0.110451 0.998074
												}
											}
										}
									}
								}
								JOINT mixamorig:LeftHandMiddle1
								{
									OFFSET 8.556145 -0.261200 0.258753
									CHANNELS 3 Xrotation Yrotation Zrotation
									JOINT mixamorig:LeftHandMiddle2
									{
										OFFSET 3.828903 -0.489014 -0.111505
										CHANNELS 3 Xrotation Yrotation Zrotation
										JOINT mixamorig:LeftHandMiddle3
										{
											OFFSET 3.696209 -0.166595 -0.107596
											CHANNELS 3 Xrotation Yrotation Zrotation
											JOINT mixamorig:LeftHandMiddle4
											{
												OFFSET 2.259281 0.534500 -0.065675
												CHANNELS 3 Xrotation Yrotation Zrotation
												End Site
												{
													OFFSET 2.259735 0.534134 -0.051267
												}
											}
										}
									}
								}
								JOINT mixamorig:LeftHandRing1
								{
									OFFSET 8.509293 -0.556679 -3.044941
									CHANNELS 3 Xrotation Yrotation Zrotation
									JOINT mixamorig:LeftHandRing2
									{
										OFFSET 2.995171 -0.303261 -0.843591
										CHANNELS 3 Xrotation Yrotation Zrotation
										JOINT mixamorig:LeftHandRing3
										{
											OFFSET 2.968273 -0.101997 -0.834287
											CHANNELS 3 Xrotation Yrotation Zrotation
											JOINT mixamorig:LeftHandRing4
											{
												OFFSET 1.521358 -0.461468 -0.418735
												CHANNELS 3 Xrotation Yrotation Zrotation
												End Site
												{
													OFFSET 1.516514 -0.460747 -0.436712
												}
											}
										}
									}
								}
							}
						}
					}
				}
				JOINT mixamorig:RightShoulder
				{
					OFFSET -4.392150 8.825024 0.141388
					CHANNELS 3 Xrotation Yrotation Zrotation
					JOINT mixamorig:RightArm
					{
						OFFSET -8.774886 -2.970947 -0.094209
						CHANNELS 3 Xrotation Yrotation Zrotation
						JOINT mixamorig:RightForeArm
						{
							OFFSET -8.450586 -0.797386 -0.330665
							CHANNELS 3 Xrotation Yrotation Zrotation
							JOINT mixamorig:RightHand
							{
								OFFSET -18.458664 0.962341 0.025780
								CHANNELS 3 Xrotation Yrotation Zrotation
								JOINT mixamorig:RightHandThumb1
								{
									OFFSET -2.390282 -1.240040 2.604684
									CHANNELS 3 Xrotation Yrotation Zrotation
									JOINT mixamorig:RightHandThumb2
									{
										OFFSET -1.912228 -0.992111 2.083740
										CHANNELS 3 Xrotation Yrotation Zrotation
										JOINT mixamorig:RightHandThumb3
										{
											OFFSET -0.876358 -1.555370 2.930126
											CHANNELS 3 Xrotation Yrotation Zrotation
											JOINT mixamorig:RightHandThumb4
											{
												OFFSET -1.227077 -0.755932 1.835223
												CHANNELS 3 Xrotation Yrotation Zrotation
												End Site
												{
													OFFSET -1.124962 -0.750702 1.901603
												}
											}
										}
									}
								}
								JOINT mixamorig:RightHandIndex1
								{
									OFFSET -8.716801 -0.633743 3.098187
									CHANNELS 3 Xrotation Yrotation Zrotation
									JOINT mixamorig:RightHandIndex2
									{
										OFFSET -3.319706 -0.240585 1.198087
										CHANNELS 3 Xrotation Yrotation Zrotation
										JOINT mixamorig:RightHandIndex3
										{
											OFFSET -3.153255 -0.154724 1.138827
											CHANNELS 3 Xrotation Yrotation Zrotation
											JOINT mixamorig:RightHandIndex4
											{
												OFFSET -1.818684 -0.003197 0.655154
												CHANNELS 3 Xrotation Yrotation Zrotation
												End Site
												{
													OFFSET -1.818668 -0.003197 0.655188
												}
											}
										}
									}
								}
								JOINT mixamorig:RightHandMiddle1
								{
									OFFSET -8.158691 -0.528496 0.196552
									CHANNELS 3 Xrotation Yrotation Zrotation
									JOINT mixamorig:RightHandMiddle2
									{
										OFFSET -3.890194 -0.261169 -0.136423
										CHANNELS 3 Xrotation Yrotation Zrotation
										JOINT mixamorig:RightHandMiddle3
										{
											OFFSET -3.903057 -0.179909 -0.137173
											CHANNELS 3 Xrotation Yrotation Zrotation
											JOINT mixamorig:RightHandMiddle4
											{
												OFFSET -2.366261 0.198380 -0.083987
												CHANNELS 3 Xrotation Yrotation Zrotation
												End Site
												{
													OFFSET -2.366409 0.198326 -0.079799
												}
											}
										}
									}
								}
								JOINT mixamorig:RightHandRing1
								{
									OFFSET -7.616104 -0.395126 -2.681268
									CHANNELS 3 Xrotation Yrotation Zrotation
									JOINT mixamorig:RightHandRing2
									{
										OFFSET -3.235790 -0.462120 -1.101476
										CHANNELS 3 Xrotation Yrotation Zrotation
										JOINT mixamorig:RightHandRing3
										{
											OFFSET -3.179264 -0.138618 -1.084847
											CHANNELS 3 Xrotation Yrotation Zrotation
											JOINT mixamorig:RightHandRing4
											{
												OFFSET -1.963291 -0.101624 -0.668250
												CHANNELS 3 Xrotation Yrotation Zrotation
												End Site
												{
													OFFSET -1.963745 -0.101669 -0.666919
												}
											}
										}
									}
								}
							}
						}
					}
				}
			}
		}
	}
	JOINT mixamorig:LeftUpLeg
	{
		OFFSET 10.205382 -3.823519 0.155145
		CHANNELS 3 Xrotation Yrotation Zrotation
		JOINT mixamorig:LeftLeg
		{
			OFFSET 0.283732 -12.998343 0.567794
			CHANNELS 3 Xrotation Yrotation Zrotation
			JOINT mixamorig:LeftFoot
			{
				OFFSET -1.058953 -10.688869 -2.184322
				CHANNELS 3 Xrotation Yrotation Zrotation
				JOINT mixamorig:LeftToeBase
				{
					OFFSET 0.108145 -7.191069 7.560211
					CHANNELS 3 Xrotation Yrotation Zrotation
					JOINT mixamorig:LeftToe_End
					{
						OFFSET 0.070226 0.081726 4.490266
						CHANNELS 3 Xrotation Yrotation Zrotation
						End Site
						{
							OFFSET 0.070226 0.081726 4.490267
						}
					}
				}
			}
		}
	}
	JOINT mixamorig:RightUpLeg
	{
		OFFSET -10.205383 -3.823513 0.005508
		CHANNELS 3 Xrotation Yrotation Zrotation
		JOINT mixamorig:RightLeg
		{
			OFFSET -0.283728 -12.998341 0.610627
			CHANNELS 3 Xrotation Yrotation Zrotation
			JOINT mixamorig:RightFoot
			{
				OFFSET 1.058956 -10.688892 -1.945833
				CHANNELS 3 Xrotation Yrotation Zrotation
				JOINT mixamorig:RightToeBase
				{
					OFFSET -0.108150 -7.191040 7.372945
					CHANNELS 3 Xrotation Yrotation Zrotation
					JOINT mixamorig:RightToe_End
					{
						OFFSET -0.070229 0.081738 4.479398
						CHANNELS 3 Xrotation Yrotation Zrotation
						End Site
						{
							OFFSET -0.070229 0.081738 4.479399
						}
					}
				}
			}
		}
	}
}
MOTION
Frames: 4
Frame Time: 0.016667
-0.033669 31.855923 0.666718 2.378029 -22.604021 3.035982 -2.270246 0.745269 -2.403064 2.875372 0.054109 -0.113500 2.875240 0.070269 -0.111166 0.296892 1.504769 -0.271394 -5.271142 10.548165 -11.974438 -0.000000 0.000000 -0.000000 0.029777 -0.769891 13.829019 -71.924563 18.273094 -14.523815 6.658527 -128.525172 5.735381 -57.769733 -1.852342 -17.790375 6.051308 32.638650 6.339489 1.111053 27.862097 11.541946 -2.289499 -13.278991 -6.237957 0.000003 0.000003 -0.000000 2.046828 23.151800 -3.625550 -0.950587 -0.030980 2.078539 -0.916292 -1.177648 2.027124 -0.000000 0.000003 -0.000001 -0.203253 -1.690285 -4.905183 -0.136390 0.006554 -4.693390 -0.275769 -0.969987 -9.806740 0.000000 0.000000 0.000002 -3.489890 -14.793558 -10.110966 -0.990834 0.060727 -3.533819 4.806147 0.363174 17.558582 0.000000 0.000002 -0.000001 -0.302559 -2.487023 -7.531110 -77.172600 -0.872980 27.063175 5.053518 136.670091 -4.473081 -45.701796 14.541965 -8.764277 11.018922 -36.995617 0.832008 -0.386880 -30.116818 -13.748958 1.603846 14.152283 7.697689 0.000000 0.000002 0.000005 1.745242 -18.585240 1.461103 2.515219 -0.621999 6.742460 2.926188 -0.508748 7.965735 0.000001 -0.000003 -0.000000 -0.288640 2.842547 3.320734 -0.151756 -1.148347 8.597793 -0.394360 -1.184589 14.844289 0.000001 0.000000 -0.000002 -2.506432 18.977039 1.881848 -4.323623 -2.212974 13.787930 -2.629858 -1.963620 8.325677 -0.000001 -0.000001 0.000000 -3.778958 5.146044 8.014943 32.470378 6.766249 3.979492 -23.494352 20.532869 -18.009221 -0.164109 -0.000007 0.000020 0.000000 -0.000000 0.000000 -31.992698 3.813718 -16.132709 47.450963 5.797392 2.459267 -17.293361 -2.612083 9.671147 -0.925252 -0.000008 0.000007 -0.000000 -0.000002 -0.000000 
-0.066363 31.840412 0.678263 2.438022 -22.449631 2.888104 -1.953303 1.329126 -2.370025 2.736831 0.139038 0.001221 2.736186 0.153813 0.006733 0.235450 1.507153 -0.490344 -5.299272 10.240711 -11.835469 -0.000000 0.000001 -0.000001 -0.156450 0.067872 14.260261 -76.103224 18.259344 -13.178579 6.437068 -129.442795 5.562310 -59.103416 -3.738783 -15.183253 6.051304 32.638650 6.339488 1.111047 27.862104 11.541944 -2.289498 -13.278988 -6.237958 -0.000001 -0.000004 -0.000001 0.899358 22.819221 -0.911320 -0.950590 -0.030988 2.078551 -1.281254 -1.328878 2.844322 0.000000 0.000002 -0.000000 -0.208336 -2.103807 -2.367564 -0.136380 0.006551 -4.693282 -0.239909 -1.121235 -8.909610 -0.000001 0.000000 -0.000003 -2.920583 -15.323147 -7.587271 -0.990873 0.060728 -3.533937 5.040919 0.276352 18.441914 -0.000001 -0.000000 -0.000002 -0.301584 -2.453635 -7.620239 -76.662726 -0.902683 27.278353 5.050816 136.685145 -4.471213 -45.313954 15.488072 -9.157620 11.018918 -36.995621 0.832006 -0.386884 -30.116818 -13.748951 1.603842 14.152285 7.697682 0.000002 0.000001 -0.000001 1.310943 -18.440643 0.218292 2.304593 -0.569972 6.187305 2.718059 -0.460668 7.409714 0.000002 0.000001 0.000001 -0.268522 3.021616 2.162767 -0.148461 -1.054954 8.000739 -0.389630 -1.091951 14.268717 -0.000000 0.000001 -0.000001 -2.151410 19.195185 0.677711 -4.168566 -2.062995 13.235494 -2.468402 -1.833996 7.792092 0.000002 0.000001 0.000002 -4.009162 4.601081 8.203754 32.960041 6.707400 3.896182 -23.711975 20.984913 -18.009298 -0.183047 -0.000010 0.000017 0.000000 0.000001 0.000000 -31.922723 3.564458 -16.174465 47.333614 5.837222 2.861446 -17.327737 -2.537016 9.362449 -0.941924 0.000001 0.000006 -0.000000 0.000002 -0.000000 
-0.100448 31.834160 0.688837 2.292769 -22.383372 2.599230 -1.628548 1.991658 -2.341551 2.684503 0.234490 0.144822 2.682921 0.248122 0.153719 0.245738 1.507160 -0.650779 -5.175233 9.995855 -11.719624 -0.000000 0.000001 0.000000 -0.359468 0.952969 14.675317 -79.197976 17.976211 -12.245856 6.222372 -130.368230 5.396687 -60.628727 -5.430607 -13.163491 6.051303 32.638650 6.339493 1.111047 27.862100 11.541952 -2.289499 -13.278988 -6.237956 -0.000001 -0.000001 -0.000000 0.222960 22.596527 0.705341 -0.950591 -0.030989 2.078570 -1.116623 -1.259903 2.475198 -0.000002 0.000002 -0.000002 -0.200470 -2.405577 -0.514984 -0.136391 0.006554 -4.693394 -0.254968 -1.058973 -9.279348 -0.000001 -0.000000 -0.000005 -2.474420 -15.706368 -5.675583 -0.990845 0.060731 -3.533870 4.957423 0.306760 18.128311 0.000001 0.000000 -0.000001 -0.284503 -2.340618 -7.568495 -75.741976 -1.023476 27.513192 5.048418 136.698368 -4.469564 -44.870948 16.335007 -9.419499 11.018932 -36.995617 0.832013 -0.386887 -30.116814 -13.748951 1.603840 14.152289 7.697690 0.000002 0.000002 0.000003 0.897894 -18.293589 -0.971677 2.103065 -0.518163 5.655003 2.518871 -0.412652 6.876524 -0.000001 0.000002 0.000001 -0.245256 3.196878 1.026370 -0.144269 -0.963364 7.414940 -0.384105 -1.001106 13.704023 0.000002 0.000001 -0.000000 -1.787834 19.408105 -0.540391 -4.010673 -1.913153 12.677730 -2.304254 -1.704714 7.253348 -0.000000 -0.000002 -0.000001 -3.948822 4.123597 8.453253 33.371478 6.642757 3.836328 -23.935867 21.468746 -18.037754 -0.207449 -0.000017 0.000013 0.000000 -0.000000 -0.000000 -31.632419 3.219240 -16.000985 47.091750 5.850563 3.013411 -17.282583 -2.473765 9.143240 -0.978010 0.000004 0.000009 -0.000000 -0.000001 0.000000 
-0.136451 31.835773 0.696414 1.980792 -22.417183 2.207395 -1.303831 2.738489 -2.320732 2.705723 0.341530 0.323611 2.702567 0.354405 0.336356 0.340071 1.505615 -0.752745 -4.863355 9.830555 -11.675261 -0.000000 -0.000000 -0.000000 -0.572344 1.851130 15.061972 -81.230436 17.497440 -11.966041 6.026301 -131.245896 5.247373 -61.926217 -6.772767 -11.764239 6.051300 32.638650 6.339493 1.111051 27.862104 11.541943 -2.289498 -13.278992 -6.237958 -0.000001 0.000003 -0.000001 -0.116602 22.477032 1.522206 -0.950586 -0.030980 2.078545 -0.561999 -1.036614 1.237386 0.000000 -0.000000 0.000002 -0.188580 -2.625194 0.835200 -0.136393 0.006547 -4.693314 -0.304215 -0.841820 -10.564456 -0.000001 -0.000001 0.000001 -2.115838 -15.995859 -4.176113 -0.990845 0.060729 -3.533843 4.647959 0.423991 16.960700 -0.000002 -0.000000 -0.000001 -0.251828 -2.138890 -7.383145 -74.336944 -1.223599 27.754817 5.047122 136.705622 -4.468669 -44.426033 16.996231 -9.567802 11.018915 -36.995624 0.832006 -0.386883 -30.116821 -13.748953 1.603843 14.152284 7.697691 -0.000002 -0.000001 0.000000 0.520564 -18.150931 -2.066086 1.917807 -0.468784 5.164722 2.335776 -0.366788 6.385467 -0.000000 0.000001 0.000001 -0.220101 3.361960 -0.047318 -0.139465 -0.876874 6.861627 -0.378043 -0.915362 13.170638 -0.000002 0.000000 0.000002 -1.429203 19.608172 -1.728158 -3.855705 -1.768885 12.134798 -2.143429 -1.580467 6.728959 0.000001 -0.000002 0.000003 -3.636192 3.818958 8.770584 33.677054 6.572786 3.803448 -24.151004 21.889370 -18.108768 -0.233150 -0.000011 0.000019 0.000000 0.000001 0.000000 -31.177396 2.862293 -15.617431 46.766288 5.809637 2.931464 -17.165522 -2.426428 9.025901 -1.031530 0.000013 0.000013 -0.000000 -0.000001 -0.000000 
